<?xml version="1.0" standalone="no"?>
<!DOCTYPE svg PUBLIC "-//W3C//DTD SVG 20010904//EN"
 "http://www.w3.org/TR/2001/REC-SVG-20010904/DTD/svg10.dtd">
<svg version="1.0" xmlns="http://www.w3.org/2000/svg"
 width="512.000000pt" height="512.000000pt" viewBox="0 0 512.000000 512.000000"
 preserveAspectRatio="xMidYMid meet">
<metadata>
Created by potrace 1.14, written by Peter Selinger 2001-2017
</metadata>
<g transform="translate(0.000000,512.000000) scale(0.100000,-0.100000)"
fill="#000000" stroke="none">
<path d="M574 5106 c-3 -7 -3 -602 -1 -1322 3 -1185 5 -1319 21 -1419 22 -141
75 -346 121 -471 95 -258 284 -583 481 -829 170 -211 464 -495 703 -679 226
-174 581 -380 655 -380 66 0 324 142 546 302 563 403 1013 931 1236 1447 95
220 159 457 183 677 7 64 11 540 11 1393 l0 1295 -1975 0 c-1659 0 -1976 -2
-1981 -14z m3886 -1336 c0 -1417 2 -1376 -65 -1637 -114 -445 -371 -873 -770
-1282 -308 -316 -669 -591 -961 -733 -103 -50 -105 -51 -146 -37 -22 7 -89 40
-147 72 -506 281 -1022 760 -1326 1231 -224 347 -357 714 -395 1085 -6 65 -10
554 -10 1342 l0 1239 1910 0 1910 0 0 -1280z"/>
<path d="M862 3643 c3 -1123 5 -1215 22 -1303 73 -381 243 -729 525 -1080 164
-204 462 -481 697 -647 177 -125 404 -253 449 -253 29 0 242 116 370 202 586
392 1043 945 1219 1478 51 153 80 288 96 439 6 65 10 519 10 1237 l0 1134
-1695 0 -1696 0 3 -1207z m1758 933 c0 -18 -7 -50 -15 -69 -22 -54 -18 -97 15
-169 17 -36 37 -98 46 -139 8 -40 16 -74 17 -75 1 -1 30 7 64 17 50 16 69 28
95 61 18 23 52 61 74 85 37 38 46 43 86 43 62 0 126 24 165 62 l33 32 0 -26
c0 -34 -33 -74 -80 -98 -52 -26 -96 -83 -112 -142 -14 -58 -50 -93 -141 -140
l-62 -32 55 -17 c77 -25 176 -24 253 2 80 27 125 21 184 -25 49 -38 97 -52
138 -42 26 7 26 6 11 -23 -24 -46 -71 -74 -109 -67 -99 21 -164 18 -240 -8
-61 -21 -94 -26 -172 -26 l-97 0 14 -22 c8 -13 39 -42 69 -66 125 -99 119 -92
143 -177 27 -97 40 -119 86 -148 l35 -22 -47 -3 c-65 -4 -108 18 -162 85 -57
69 -77 84 -148 112 -31 12 -75 39 -98 58 -22 19 -42 34 -44 32 -1 -2 -11 -39
-21 -82 -17 -75 -17 -81 0 -143 21 -77 15 -122 -22 -155 -39 -36 -66 -104 -58
-147 7 -35 6 -35 -17 -20 -13 8 -31 32 -42 52 -17 34 -17 44 -6 91 21 89 10
153 -40 230 -39 60 -44 74 -43 122 l2 55 -37 -7 c-57 -11 -87 -30 -159 -106
-79 -82 -107 -99 -163 -99 -54 0 -105 -22 -142 -62 l-31 -33 7 30 c11 44 33
75 69 93 67 37 116 92 133 151 19 65 40 91 113 138 29 19 51 36 49 39 -3 2
-41 11 -84 20 -87 16 -133 10 -205 -26 -56 -29 -82 -25 -135 21 -56 49 -81 59
-140 59 -24 0 -44 4 -44 8 0 11 50 57 77 71 29 15 60 14 108 -4 55 -20 109
-18 153 4 52 26 110 41 199 49 l76 7 -46 50 c-24 28 -63 64 -85 80 -48 35 -67
69 -82 145 -12 62 -40 108 -82 136 -35 24 -36 34 0 34 67 0 105 -21 181 -100
57 -59 89 -84 127 -98 28 -10 72 -34 98 -51 26 -18 49 -31 50 -29 12 16 37
145 33 170 -3 18 -8 52 -12 75 -10 58 -3 80 50 147 36 47 45 66 45 100 l1 41
34 -37 c26 -28 35 -47 35 -72z m-724 -1383 c-105 -152 -149 -272 -162 -441
-12 -161 35 -341 127 -482 80 -124 189 -218 330 -284 126 -60 184 -71 364 -70
143 1 169 3 248 27 237 73 399 210 501 428 57 119 71 186 70 334 -1 110 -5
144 -28 218 -32 107 -78 201 -141 286 -52 70 -51 70 55 -8 245 -180 412 -437
476 -731 14 -63 19 -128 19 -255 0 -146 -3 -182 -23 -255 -28 -104 -115 -284
-176 -365 -267 -353 -705 -558 -1105 -516 -156 16 -277 52 -426 126 -337 166
-568 435 -656 765 -19 70 -23 111 -23 235 -1 83 5 183 13 225 46 258 183 510
369 680 72 66 197 159 215 160 4 0 -17 -35 -47 -77z"/>
</g>
</svg>
