<?xml version="1.0" encoding="UTF-8"?> <svg xmlns="http://www.w3.org/2000/svg" viewBox="0 0 265.55 77.42"><defs><style>.cls-1{fill:#fff;}</style></defs><g id="Layer_2" data-name="Layer 2"><g id="Layer_1-2" data-name="Layer 1"><path class="cls-1" d="M59.83,0H0S0,34.34,0,37c0,23.9,26.14,39.63,29.92,40.38,3.77-.79,29.92-16.5,29.9-40.22ZM29.89,72c-3-.62-25.59-14.21-25.59-34.69,0,0,0-24.51,0-33.21H55.56V37.4C55.54,57.8,33,71.35,29.89,72Z"></path><path class="cls-1" d="M38.89,27.82a12.81,12.81,0,0,1,3.51,9C42.52,41.2,39,48.54,29.93,48.55A12,12,0,0,1,17.48,36.88c0-3.91,1.16-6.24,3.5-9.1A18.32,18.32,0,0,0,11.6,44.2c-.06,9.28,9.23,17,18.33,17s18.29-7.76,18.28-17S42.7,30.21,38.89,27.82Z"></path><path class="cls-1" d="M19,19.92c.73.73,1.22,1.14,2.35.48,1.71-1,2.59-.37,4.43-.11-1.09.85-2.31,1.23-2.48,2.3a3.26,3.26,0,0,1-2,2.56A2.23,2.23,0,0,0,20,27.27a2.81,2.81,0,0,1,2.92-1.57c1,0,1.84-1.13,2.57-2a3.38,3.38,0,0,1,2.57-1.16c-.43,2,.35,2,1.12,3.53A3.64,3.64,0,0,1,29.1,29c-.07.94.31,1.54,1.33,2.19A2.19,2.19,0,0,1,31,28.45a1.91,1.91,0,0,0,.57-2.21c-.61-1.73-.1-2,.22-3.81a6.45,6.45,0,0,0,2.66,1.62c1.1.37,1.8,1.74,2.27,2.13a2.51,2.51,0,0,0,2.65.58A2.62,2.62,0,0,1,37.7,25c-.38-1-.14-2-1.22-2.64a8.46,8.46,0,0,1-2.55-2.26s2.83.44,4.41-.37a4.11,4.11,0,0,1,3.37,0c.81.11,1.39-.44,2-1.54a2.4,2.4,0,0,1-2.63-.59,2.12,2.12,0,0,0-2.35-.42,6,6,0,0,1-5-.15c1.87-1,2.81-1.18,3-2.32a3.4,3.4,0,0,1,2-2.52c1-.55,1.11-1.25,1-1.76a3.56,3.56,0,0,1-3.08,1.42c-1,0-1.53.85-2.17,1.78-.91,1.32-1.95,1-2.67,1.45a8.77,8.77,0,0,0-1-3.63c-.93-1.25.14-2.57.18-3,.08-.94-.41-1.42-1.24-2,.34.85.22,1.42-.84,2.48a2.25,2.25,0,0,0-.47,2.45c.46,1.49-.06,1.62-.4,3.44a6.15,6.15,0,0,0-2.63-1.53c-1.1-.39-1.66-1.58-2.12-2a3,3,0,0,0-2.89-.74,2.84,2.84,0,0,1,1.88,1.93c.37,1,0,1.75,1.19,2.6A8,8,0,0,1,25.7,17.3a7.82,7.82,0,0,0-4.36.79c-1,.64-2.8-.3-2.91-.3a2.58,2.58,0,0,0-2.13,1.54A2.45,2.45,0,0,1,19,19.92Z"></path><g id="Layer_37" data-name="Layer 37"><g id="Layer_2-2" data-name="Layer 2"><g id="Layer_3" data-name="Layer 3"><path class="cls-1" d="M76.47,13.65c0-3,0-3.28-3.67-3.47V9c2.24.12,4.48.2,6.79.2s4.52-.08,6.76-.2c3.74,0,8,1.62,8,6,0,4.82-4.17,8-9,8.18A8.84,8.84,0,0,1,82.84,23l-.43-1.43a12.67,12.67,0,0,0,2.47.35,5.34,5.34,0,0,0,5.6-5.56c0-4-2.43-5.87-6.29-5.87a20.69,20.69,0,0,0-3.82.54,8.18,8.18,0,0,0-.24,2.66V31.37c0,3,0,3.28,3.67,3.48V36c-1.85-.12-3.67-.2-5.56-.2s-3.7.08-5.44.2V34.85c3.71-.2,3.67-.47,3.67-3.48Z"></path></g></g></g><g id="Layer_36" data-name="Layer 36"><path class="cls-1" d="M93.64,27.55c0-5.79,3.63-9.84,9.84-9.84a8.67,8.67,0,0,1,8.77,8.8,9.7,9.7,0,0,1-10.12,10.07C97.27,36.74,93.64,32.88,93.64,27.55Zm3.59-1.66c0,4.06,1.47,9.38,6.41,9.38,3.51,0,4.94-3.47,4.94-7.06,0-5-2.28-9.54-6-9.23C98.5,19,97.23,22.3,97.23,25.89Z"></path></g><g id="Layer_35" data-name="Layer 35"><path class="cls-1" d="M116.42,22.22c0-1.58-1.78-2-3.21-2V19a49.35,49.35,0,0,0,6.1-1.31,1,1,0,0,1,.19.77v2.7l2.17-1.89A5.72,5.72,0,0,1,125,17.71a4.44,4.44,0,0,1,1.85.34c.19.08.11.35.08.51l-.27,4.13h-.85A2.85,2.85,0,0,0,123.29,21c-2.7,0-3.63,2.59-3.63,5.29V30c0,3.86.15,4.83,3.2,4.83V36c-1.58-.12-3.2-.2-4.82-.2s-3.25.08-4.83.2V34.85c3.21-.2,3.21-1,3.21-4.83Z"></path></g><g id="Layer_34" data-name="Layer 34"><path class="cls-1" d="M129.27,21.18v-.77L132,19.06l0-2.7c-.07-1-.15-2-.27-3a16.74,16.74,0,0,0,3.36-1.47l.5.39a8.41,8.41,0,0,0-.3,1.39l-.24,5.44h5.37L140.19,21h-5.1v8.69c0,2-.23,4.16,2.51,4.16a3.81,3.81,0,0,0,1.89-.69l.66.66c-.35.34-.69.73-1,1.12l-.85.92a.63.63,0,0,1-.46.2,7.31,7.31,0,0,1-1.78.27c-2.9,0-4.17-1.55-4.17-4.1V21Z"></path></g><g id="Layer_33" data-name="Layer 33"><path class="cls-1" d="M153.35,23c0-1.24-.11-2.24-1.19-3.05a6.18,6.18,0,0,0-3.29-1c-3.51,0-4.43,3-3.35,4.44,2.35,3,10.5.7,10.5,6.68,0,4.25-4.21,6.48-8.5,6.48a13.05,13.05,0,0,1-5.32-1.12,40.46,40.46,0,0,0,.34-5.17h1.16v1c.16,1.89-.15,2,1.51,3a6.87,6.87,0,0,0,3.47.89c2.43,0,4.52-1.43,4.52-3.52a2.6,2.6,0,0,0-1.85-2.54c-3.21-1.2-9-1-9-5.76,0-4.17,3.63-5.63,7.26-5.63a13.55,13.55,0,0,1,5,1,28.36,28.36,0,0,0-.24,4.29Z"></path></g><g id="Layer_32" data-name="Layer 32"><path class="cls-1" d="M160.61,22.22c0-1.58-1.78-2-3.21-2V19a49.35,49.35,0,0,0,6.1-1.31,1,1,0,0,1,.19.77v2.7l2.63-2.43a4.33,4.33,0,0,1,3.17-1,5.62,5.62,0,0,1,5.71,3.59l2.7-2.4a4.45,4.45,0,0,1,3.63-1.19c3.05,0,5.56,2.2,5.56,6.33v6c0,3.86,0,4.63,2.89,4.83V36a26.57,26.57,0,0,0-3.09-.2,24.25,24.25,0,0,0-3,.2V25.62c0-3.51-1.51-5.44-3.63-5.44-4.75,0-4.75,3.51-4.75,5.25V30c0,3.86.15,4.83,3.2,4.83V36c-1.58-.12-3.2-.2-4.82-.2s-3.24.08-4.83.2V34.85c3.21-.2,3.21-1,3.21-4.83V27.4a26.27,26.27,0,0,0-.24-4,3.56,3.56,0,0,0-3.66-3.24c-4.48,0-4.48,3.51-4.48,5.25V30c0,3.86.15,4.83,3.2,4.83V36c-1.58-.12-3.2-.2-4.82-.2s-3.24.08-4.83.2V34.85c3.21-.2,3.21-1,3.21-4.83Z"></path></g><g id="Layer_31" data-name="Layer 31"><path class="cls-1" d="M190.1,27.55c0-5.79,3.63-9.84,9.84-9.84a8.67,8.67,0,0,1,8.76,8.8,9.69,9.69,0,0,1-10.11,10.07C193.73,36.74,190.1,32.88,190.1,27.55Zm3.59-1.66c0,4.06,1.47,9.38,6.41,9.38,3.51,0,4.94-3.47,4.94-7.06,0-5-2.28-9.54-6-9.23C195,19,193.69,22.3,193.69,25.89Z"></path></g><g id="Layer_30" data-name="Layer 30"><path class="cls-1" d="M212.3,22.22c0-1.58-1.78-2-3.13-2V19a42.17,42.17,0,0,0,6.37-1.31,1.1,1.1,0,0,1,.19.77l-.19,5.91v4.86c0,3,.65,4.83,4.09,4.83,1.74,0,4.48-1.74,4.86-3.48a7.77,7.77,0,0,0,.16-1.35v-7c0-1.58-1.78-2-3.13-2V19a42.17,42.17,0,0,0,6.37-1.31,1.1,1.1,0,0,1,.19.77l-.19,5.91v8c0,.77-.19,1.66.62,2.12a7.27,7.27,0,0,0,1.81.27l.7,0V36a30.07,30.07,0,0,0-3.28-.2,27.94,27.94,0,0,0-3.25.2,6.52,6.52,0,0,0,.16-1.9V32.65a30.65,30.65,0,0,0-2.39,2.08,3.77,3.77,0,0,1-2,1.28,11.28,11.28,0,0,1-2.51.27c-5.44,0-5.44-3.48-5.44-6.61Z"></path></g><g id="Layer_29" data-name="Layer 29"><path class="cls-1" d="M231.25,21.18v-.77L234,19.06l0-2.7c-.08-1-.16-2-.27-3a16.88,16.88,0,0,0,3.35-1.47l.5.39a9.57,9.57,0,0,0-.3,1.39l-.24,5.44h5.37L242.17,21h-5.1v8.69c0,2-.23,4.16,2.51,4.16a3.85,3.85,0,0,0,1.9-.69l.65.66c-.35.34-.69.73-1,1.12l-.85.92a.63.63,0,0,1-.46.2,7.31,7.31,0,0,1-1.78.27c-2.89,0-4.17-1.55-4.17-4.1V21Z"></path></g><g id="Layer_28" data-name="Layer 28"><path class="cls-1" d="M247,12.42c0-1.58-1.78-2.05-3.13-2.05V9.22a42.21,42.21,0,0,0,6.37-1.32,1.14,1.14,0,0,1,.19.78l-.19,5.9v6.76l2.93-2.59a4.35,4.35,0,0,1,3.13-1c3.05,0,5.56,2.2,5.56,6.33v6c0,3.86,0,4.63,2.89,4.83V36a26.57,26.57,0,0,0-3.09-.2,24.54,24.54,0,0,0-3.05.2V25.62c0-3.51-1.5-5.44-3.62-5.44-4.75,0-4.75,3.51-4.75,5.25V30c0,3.86.15,4.83,3.2,4.83V36c-1.58-.12-3.2-.2-4.82-.2s-3.25.08-4.83.2V34.85c3.21-.2,3.21-1,3.21-4.83Z"></path></g><path class="cls-1" d="M84.64,57.17l-.4.89a8.48,8.48,0,0,1-4.15,1q-4.59,0-6.28-3.3A7.21,7.21,0,0,1,73,52.46,5.84,5.84,0,0,1,75,47.87,7.68,7.68,0,0,1,80.3,46.1a11.8,11.8,0,0,1,4.21.78l.11.13a14.86,14.86,0,0,0-.37,2.84l-.08.09h-.51l-.09-.1a11.52,11.52,0,0,0-.1-1.47,4,4,0,0,0-3.17-1.24A4.27,4.27,0,0,0,77,48.48a5.3,5.3,0,0,0-1.21,3.68A5.73,5.73,0,0,0,77.9,57a4.86,4.86,0,0,0,3.08.9A7.09,7.09,0,0,0,84.42,57Z"></path><path class="cls-1" d="M96.9,58.67l-.08.09c-.59,0-1.49-.06-2.72-.06s-2.12,0-2.71.06l-.08-.09v-.59L91.4,58a7,7,0,0,0,1-.09.37.37,0,0,0,.3-.32,19.37,19.37,0,0,0,.11-2.73V50.21a19.37,19.37,0,0,0-.11-2.73.39.39,0,0,0-.3-.33c-.09,0-.43,0-1-.08L91.31,47v-.6l.09-.08c.57,0,1.47.06,2.71.06s2.14,0,2.7-.06l.09.08V47l-.09.09c-.6,0-.94.06-1,.08a.39.39,0,0,0-.3.33,19.37,19.37,0,0,0-.11,2.73v4.64a19.37,19.37,0,0,0,.11,2.73.37.37,0,0,0,.3.32,7,7,0,0,0,1,.09l.09.09Z"></path><path class="cls-1" d="M114.29,46.36a8.36,8.36,0,0,0-.11,1.34l0,1.47-.09.09h-.55l-.1-.08a12.14,12.14,0,0,0-.09-1.32.6.6,0,0,0-.57-.41q-.17,0-1.65,0h-1.18c0,.2,0,1,0,2.44v5a19.37,19.37,0,0,0,.11,2.73.37.37,0,0,0,.3.32,7,7,0,0,0,1,.09l.09.09v.59l-.09.09c-.58,0-1.48-.06-2.71-.06s-2.16,0-2.71.06l-.08-.08v-.6L106,58a7,7,0,0,0,1-.09.37.37,0,0,0,.3-.32,19.37,19.37,0,0,0,.11-2.73v-5c0-1.45,0-2.26,0-2.44h-1.26a8.5,8.5,0,0,0-1.84.1.34.34,0,0,0-.19.13,1.68,1.68,0,0,0-.13.56c0,.31-.07.63-.08,1l-.09.09h-.55l-.1-.09,0-1.51a9.86,9.86,0,0,0-.1-1.3l.08-.09q.51.09,3.78.09h3.56q3,0,3.78-.09Z"></path><path class="cls-1" d="M131.91,46.71q-1.4,1.89-3,4.64a10,10,0,0,0-1,2,3.69,3.69,0,0,0,0,.66v.87a12,12,0,0,0,.16,2.87.32.32,0,0,0,.2.16,6.56,6.56,0,0,0,1.08.11l.09.09v.59l-.09.09c-.58,0-1.48-.06-2.71-.06s-2.15,0-2.7.06l-.08-.08v-.6l.08-.09a6.56,6.56,0,0,0,1.08-.11.37.37,0,0,0,.21-.16,12.59,12.59,0,0,0,.16-2.87v-1a12.24,12.24,0,0,0-1.38-2.68,18.74,18.74,0,0,0-2.25-3.23,2.48,2.48,0,0,0-.54-.47,2.13,2.13,0,0,0-.66-.06l-.1-.09v-.5l.09-.09c1.43-.28,2.35-.48,2.75-.6a3.17,3.17,0,0,1,.82.57,13.47,13.47,0,0,1,2,3.25l1.15,2.31q.52-.84,2-3.36l1-1.75.43-.8h1.28l.09.09Z"></path><path class="cls-1" d="M159.44,57.17l-.41.89a8.48,8.48,0,0,1-4.15,1q-4.59,0-6.27-3.3a7.21,7.21,0,0,1-.78-3.32,5.83,5.83,0,0,1,1.91-4.59,7.69,7.69,0,0,1,5.35-1.77,11.76,11.76,0,0,1,4.21.78l.12.13a14.86,14.86,0,0,0-.37,2.84l-.08.09h-.52l-.09-.1a12.1,12.1,0,0,0-.09-1.47,4,4,0,0,0-3.18-1.24,4.25,4.25,0,0,0-3.34,1.35,5.31,5.31,0,0,0-1.22,3.68A5.73,5.73,0,0,0,152.69,57a4.89,4.89,0,0,0,3.09.9,7.11,7.11,0,0,0,3.44-.91Z"></path><path class="cls-1" d="M179.21,52.21a6.79,6.79,0,0,1-1.89,5.09,6.91,6.91,0,0,1-5,1.79,6.4,6.4,0,0,1-4.72-1.69,6.34,6.34,0,0,1-1.72-4.71q0-4.23,3.23-5.85a8,8,0,0,1,3.61-.74,6.67,6.67,0,0,1,4.77,1.61A5.88,5.88,0,0,1,179.21,52.21Zm-2.71.46a7.1,7.1,0,0,0-1-4.05,3.42,3.42,0,0,0-3-1.5A3.35,3.35,0,0,0,169,49.47a7.86,7.86,0,0,0-.44,2.69,8,8,0,0,0,1,4.29,3.45,3.45,0,0,0,3.11,1.63A3.3,3.3,0,0,0,176,55.61,8.72,8.72,0,0,0,176.5,52.67Z"></path><path class="cls-1" d="M199,47l-.09.09c-.69,0-1.08.18-1.17.55a8.54,8.54,0,0,0-.1,1.34c0,.51,0,1.24,0,2.2v2.71a5.44,5.44,0,0,1-1,3.73,5,5,0,0,1-3.88,1.47,7.09,7.09,0,0,1-3.6-.76,3,3,0,0,1-1.42-1.85,21.39,21.39,0,0,1-.21-4V50.21a18.82,18.82,0,0,0-.12-2.73.39.39,0,0,0-.3-.33,10,10,0,0,0-1-.08l-.09-.09v-.59l.09-.09q.84.06,2.7.06t2.7-.06l.09.09V47l-.09.09c-.6,0-.94.06-1,.08a.39.39,0,0,0-.3.33,21.14,21.14,0,0,0-.11,2.73V52a15.35,15.35,0,0,0,.3,4.06c.4,1,1.38,1.48,2.94,1.48a3.47,3.47,0,0,0,2.4-.76,2.08,2.08,0,0,0,.56-.72,4.25,4.25,0,0,0,.25-1.15,14,14,0,0,0,.08-1.46V51.65c0-1.54,0-2.59,0-3.15a3.9,3.9,0,0,0-.1-1,.5.5,0,0,0-.31-.27,5,5,0,0,0-1.08-.13l-.09-.09v-.59l.09-.09c.51,0,1,.06,1.57.06s1.18,0,2.33-.06l.09.09Z"></path><path class="cls-1" d="M219.25,47l-.1.09c-.6,0-.94.06-1,.08a.39.39,0,0,0-.3.33,21.14,21.14,0,0,0-.11,2.73v3.56c0,2.63,0,4.35.11,5.14l-.11.08c-.66-.11-1.16-.19-1.5-.23q-2.36-2.65-8.05-9.65v5.74a18.82,18.82,0,0,0,.12,2.73.37.37,0,0,0,.3.32,7,7,0,0,0,1,.09l.08.09v.6l-.08.08c-.68,0-1.3-.06-1.88-.06s-1.36,0-2,.06l-.08-.08v-.6l.08-.09a6.77,6.77,0,0,0,1-.09.37.37,0,0,0,.3-.32,18.82,18.82,0,0,0,.12-2.73V50.21a18.82,18.82,0,0,0-.12-2.73.39.39,0,0,0-.3-.33,10.08,10.08,0,0,0-1-.08l-.08-.09v-.6l.08-.08c.56,0,1.09.06,1.6.06.79,0,1.44,0,2-.06q3.17,4.23,7.44,9.05V50.21a21.14,21.14,0,0,0-.11-2.73.39.39,0,0,0-.3-.33c-.09,0-.43,0-1-.08l-.09-.09v-.6l.09-.08c.65,0,1.28.06,1.87.06q1.14,0,2-.06l.09.08Z"></path><path class="cls-1" d="M237.3,57.17l-.4.89a8.48,8.48,0,0,1-4.15,1q-4.59,0-6.27-3.3a7.1,7.1,0,0,1-.79-3.32,5.84,5.84,0,0,1,1.92-4.59A7.69,7.69,0,0,1,233,46.1a11.76,11.76,0,0,1,4.21.78l.12.13a14.1,14.1,0,0,0-.37,2.84l-.08.09h-.52l-.09-.1a14.67,14.67,0,0,0-.09-1.47A4,4,0,0,0,233,47.13a4.28,4.28,0,0,0-3.35,1.35,5.35,5.35,0,0,0-1.21,3.68A5.73,5.73,0,0,0,230.56,57a4.89,4.89,0,0,0,3.09.9,7,7,0,0,0,3.43-.91Z"></path><path class="cls-1" d="M249.56,58.67l-.08.09c-.59,0-1.49-.06-2.71-.06s-2.13,0-2.71.06l-.08-.09v-.59l.09-.09a7.13,7.13,0,0,0,1-.09.36.36,0,0,0,.29-.32,18.82,18.82,0,0,0,.12-2.73V50.21a18.82,18.82,0,0,0-.12-2.73.38.38,0,0,0-.29-.33c-.09,0-.44,0-1-.08L244,47v-.6l.09-.08q.84.06,2.7.06t2.7-.06l.09.08V47l-.09.09c-.6,0-.94.06-1,.08a.39.39,0,0,0-.3.33,21.14,21.14,0,0,0-.11,2.73v4.64a21.14,21.14,0,0,0,.11,2.73.37.37,0,0,0,.3.32,7,7,0,0,0,1,.09l.09.09Z"></path><path class="cls-1" d="M265.55,55.77a19.41,19.41,0,0,0-.19,2.9l-.09.09-6.39-.06c-1.07,0-1.82,0-2.26.06l-.09-.09v-.25l.05-.1a3.11,3.11,0,0,0,.7-.52,5.2,5.2,0,0,0,.1-1.17l0-2V50.21a21.14,21.14,0,0,0-.11-2.73.39.39,0,0,0-.3-.33c-.09,0-.43,0-1-.08l-.09-.09v-.6l.09-.08c.61,0,1.49.06,2.66.06s2.12,0,2.75-.06l.08.08V47l-.08.08c-.6,0-.94.06-1,.08a.39.39,0,0,0-.3.33,19.37,19.37,0,0,0-.11,2.73v5.25c0,.77,0,1.51,0,2.23h1.2a13.37,13.37,0,0,0,3.14-.2.22.22,0,0,0,.14-.1,1.38,1.38,0,0,0,.17-.52l.21-1.09.09-.1h.53Z"></path></g></g></svg> 